<svg id="SvgjsSvg1001" width="288" height="288" xmlns="http://www.w3.org/2000/svg" version="1.1" xmlns:xlink="http://www.w3.org/1999/xlink" xmlns:svgjs="http://svgjs.com/svgjs"><defs id="SvgjsDefs1002"></defs><g id="SvgjsG1008"><svg xmlns="http://www.w3.org/2000/svg" viewBox="0 0 192 192" width="288" height="288"><g fill="none" stroke="#ffffff" stroke-width="12" class="colorStroke000 svgStroke"><path stroke-linecap="round" d="M151.8 144.5a74 74 0 0 1-85.59 19.21A74 74 0 0 1 22.42 87.7a74 74 0 0 1 59.55-64.42m28.03.06a74 74 0 0 1 50.06 35.61 74 74 0 0 1 5.915 61.15" fill="#000000" class="color000 svgShape"></path><path d="M76 92h40c4.432 0 8 3.568 8 8v22c0 4.432-3.568 8-8 8H76c-4.432 0-8-3.568-8-8v-22c0-4.432 3.568-8 8-8zm4 0V77.7C80 69.029 87.163 62 96 62s16 7.029 16 15.7V92" fill="#000000" class="color000 svgShape"></path></g></svg></g></svg>