<svg id="SvgjsSvg1001" width="288" height="288" xmlns="http://www.w3.org/2000/svg" version="1.1" xmlns:xlink="http://www.w3.org/1999/xlink" xmlns:svgjs="http://svgjs.com/svgjs"><defs id="SvgjsDefs1002"></defs><g id="SvgjsG1008"><svg xmlns="http://www.w3.org/2000/svg" data-name="Layer 1" viewBox="0 0 24 24" width="288" height="288"><rect width="11.45" height="15.27" x="6.27" y="5.32" fill="none" stroke="#ffffff" stroke-miterlimit="10" stroke-width="1.91" rx="5.73" class="colorStroke020202 svgStroke"></rect><path fill="none" stroke="#ffffff" stroke-miterlimit="10" stroke-width="1.91" d="M17.73,9.14h1.91A2.86,2.86,0,0,1,22.5,12v1.91a2.86,2.86,0,0,1-2.86,2.86H17.73a0,0,0,0,1,0,0V9.14A0,0,0,0,1,17.73,9.14Z" class="colorStroke020202 svgStroke"></path><path fill="none" stroke="#ffffff" stroke-miterlimit="10" stroke-width="1.91" d="M1.5,9.14H3.41A2.86,2.86,0,0,1,6.27,12v1.91a2.86,2.86,0,0,1-2.86,2.86H1.5a0,0,0,0,1,0,0V9.14A0,0,0,0,1,1.5,9.14Z" transform="rotate(180 3.885 12.955)" class="colorStroke020202 svgStroke"></path><path fill="none" stroke="#ffffff" stroke-miterlimit="10" stroke-width="1.91" d="M4.36 9.14h0A7.64 7.64 0 0112 1.5h0a7.64 7.64 0 017.64 7.64h0M19.64 16.77v1a4.78 4.78 0 01-4.78 4.77" class="colorStroke020202 svgStroke"></path></svg></g></svg>